<svg xmlns="http://www.w3.org/2000/svg" width="512" height="512" viewBox="0 0 512 512" fill="#dddddd">
    <g transform="matrix(1.13 0 0 1.13 256 256)">
        <path transform=" translate(-256, -256)" d="M 200 32 L 56 32 C 42.7 32 32 42.7 32 56 L 32 200 C 32 209.7 37.8 218.5 46.8 222.2 C 55.8 225.89999999999998 66.1 223.89999999999998 73 217 L 113 177 L 192 256 L 113 335 L 73 295 C 66.1 288.1 55.8 286.1 46.8 289.8 C 37.8 293.5 32 302.3 32 312 L 32 456 C 32 469.3 42.7 480 56 480 L 200 480 C 209.7 480 218.5 474.2 222.2 465.2 C 225.89999999999998 456.2 223.89999999999998 445.9 217 439 L 177 399 L 256 320 L 335 399 L 295 439 C 288.1 445.9 286.1 456.2 289.8 465.2 C 293.5 474.2 302.3 480 312 480 L 456 480 C 469.3 480 480 469.3 480 456 L 480 312 C 480 302.3 474.2 293.5 465.2 289.8 C 456.2 286.1 445.9 288.1 439 295 L 399 335 L 320 256 L 399 177 L 439 217 C 445.9 223.9 456.2 225.9 465.2 222.2 C 474.2 218.49999999999997 480 209.7 480 200 L 480 56 C 480 42.7 469.3 32 456 32 L 312 32 C 302.3 32 293.5 37.8 289.8 46.8 C 286.1 55.8 288.1 66.1 295 73 L 335 113 L 256 192 L 177 113 L 217 73 C 223.9 66.1 225.9 55.8 222.2 46.8 C 218.49999999999997 37.8 209.7 32 200 32 z"/>
    </g>
</svg>